<svg xmlns="http://www.w3.org/2000/svg" version="1.1" xmlns:xlink="http://www.w3.org/1999/xlink" xmlns:svgjs="http://svgjs.dev/svgjs" width="1000" height="1000" viewBox="0 0 1000 1000"><rect width="1000" height="1000" fill="#31c48d"></rect><g transform="matrix(0.7,0,0,0.7,150.11896067415722,391.0205567567567)"><svg viewBox="0 0 356 111" data-background-color="#31c48d" preserveAspectRatio="xMidYMid meet" height="311" width="1000" xmlns="http://www.w3.org/2000/svg" xmlns:xlink="http://www.w3.org/1999/xlink"><g id="tight-bounds" transform="matrix(1,0,0,1,-0.06049999999996203,0.0660000000000025)"><svg viewBox="0 0 356.12052 110.86787282545805" height="110.86787282545805" width="356.12052"><g><svg viewBox="0 0 356.12052 110.86787282545805" height="110.86787282545805" width="356.12052"><g><svg viewBox="0 0 356.12052 110.86787282545805" height="110.86787282545805" width="356.12052"><g><path d="M0 110.868v-110.868h356.121v110.868z" fill="#ffffff" stroke="transparent" stroke-width="0" rx="0%" data-fill-palette-color="tertiary"></path><path d="M3.283 107.585v-104.302h349.554v104.302z" fill="#31c48d" stroke="transparent" stroke-width="0" rx="0%" data-fill-palette-color="quaternary"></path><path d="M9.85 101.018v-91.168h336.421v91.168z" fill="#ffffff" stroke="transparent" stroke-width="0" data-fill-palette-color="tertiary"></path></g><g transform="matrix(1,0,0,1,19.69974,19.69974)" id="textblocktransform"><svg viewBox="0 0 316.72104 71.46839282545805" height="71.46839282545805" width="316.72104" id="textblock"><g><svg viewBox="0 0 316.72104 71.46839282545805" height="71.46839282545805" width="316.72104"><g transform="matrix(1,0,0,1,0,0)"><svg width="316.72104" viewBox="3.700000047683716 -34.75 155.54000854492188 35.099998474121094" height="71.46839282545805" data-palette-color="#31c48d"><path d="M3.7-34.75L9.4-34.75 9.4-12.6Q9.4-8.65 11.48-6.65 13.55-4.65 17.25-4.65L17.25-4.65Q21-4.65 23.08-6.65 25.15-8.65 25.15-12.6L25.15-12.6 25.15-34.75 30.85-34.75 30.85-12.7Q30.85-8.45 29-5.5 27.15-2.55 24.05-1.1 20.95 0.35 17.2 0.35L17.2 0.35Q13.45 0.35 10.38-1.1 7.3-2.55 5.5-5.5 3.7-8.45 3.7-12.7L3.7-12.7 3.7-34.75ZM36.45-34.75L60.7-34.75 60.7-30.1 51.45-30.1 51.45 0 45.75 0 45.75-30.1 36.45-30.1 36.45-34.75ZM88.1-30.3L71.95-4.95 88.1-4.95 88.1 0 65.2 0 65.2-4.45 81.3-29.8 65.2-29.8 65.2-34.75 88.1-34.75 88.1-30.3ZM94.94-20.5L115.49-20.5 115.49-15.7 94.94-15.7 94.94-20.5ZM123.59-34.75L129.29-34.75 129.29 0 123.59 0 123.59-34.75ZM134.99-34.75L159.24-34.75 159.24-30.1 149.99-30.1 149.99 0 144.29 0 144.29-30.1 134.99-30.1 134.99-34.75Z" opacity="1" transform="matrix(1,0,0,1,0,0)" fill="#31c48d" class="wordmark-text-0" data-fill-palette-color="quaternary" id="text-0"></path></svg></g></svg></g></svg></g></svg></g><g></g></svg></g><defs></defs></svg><rect width="356.12052" height="110.86787282545805" fill="none" stroke="none" visibility="hidden"></rect></g></svg></g></svg>